<?xml version="1.0" encoding="UTF-8" standalone="no"?>
<!DOCTYPE svg PUBLIC "-//W3C//DTD SVG 1.1//EN"
 "http://www.w3.org/Graphics/SVG/1.1/DTD/svg11.dtd">
<!-- Generated by graphviz version 2.49.2 (0)
 -->
<!-- Title: comments Pages: 1 -->
<svg width="224pt" height="264pt"
 viewBox="0.00 0.00 224.34 264.12" xmlns="http://www.w3.org/2000/svg" xmlns:xlink="http://www.w3.org/1999/xlink">
<g id="graph0" class="graph" transform="scale(1 1) rotate(0) translate(4 260.12)">
<title>comments</title>
<!-- A -->
<g id="node1" class="node">
<title>A</title>
<ellipse fill="#7ccd7c" stroke="black" cx="44.85" cy="-209.49" rx="44.69" ry="44.69"/>
<text text-anchor="middle" x="44.85" y="-205.79" font-family="Times,serif" font-size="14.00">State A</text>
</g>
<!-- B -->
<g id="node2" class="node">
<title>B</title>
<ellipse fill="#7ccd7c" stroke="black" cx="170.85" cy="-209.49" rx="45.49" ry="45.49"/>
<text text-anchor="middle" x="170.85" y="-205.79" font-family="Times,serif" font-size="14.00">State B</text>
</g>
<!-- A&#45;&gt;B -->
<g id="edge1" class="edge">
<title>A&#45;&gt;B</title>
<path fill="none" stroke="black" d="M80.78,-182.06C95.5,-175.31 110.21,-174.06 124.93,-178.33"/>
<polygon fill="black" stroke="black" points="124.01,-181.72 134.61,-181.92 126.45,-175.16 124.01,-181.72"/>
<text text-anchor="middle" x="107.68" y="-166.25" font-family="Times,serif" font-size="12.00">space|tab</text>
</g>
<!-- B&#45;&gt;A -->
<g id="edge4" class="edge">
<title>B&#45;&gt;A</title>
<path fill="none" stroke="black" d="M134.61,-237.05C119.89,-243.73 105.17,-244.9 90.45,-240.56"/>
<polygon fill="black" stroke="black" points="91.37,-237.16 80.78,-236.91 88.9,-243.71 91.37,-237.16"/>
<text text-anchor="middle" x="102.7" y="-246.52" font-family="Times,serif" font-size="12.00">#</text>
</g>
<!-- C -->
<g id="node3" class="node">
<title>C</title>
<ellipse fill="#7ccd7c" stroke="black" cx="107.85" cy="-45.5" rx="45.49" ry="45.49"/>
<text text-anchor="middle" x="107.85" y="-41.8" font-family="Times,serif" font-size="14.00">State C</text>
</g>
<!-- B&#45;&gt;C -->
<g id="edge2" class="edge">
<title>B&#45;&gt;C</title>
<path fill="none" stroke="black" d="M154.62,-166.77C146.39,-145.61 136.33,-119.73 127.64,-97.4"/>
<polygon fill="black" stroke="black" points="130.9,-96.12 124.02,-88.07 124.38,-98.66 130.9,-96.12"/>
<text text-anchor="middle" x="137.35" y="-130.89" font-family="Times,serif" font-size="12.00">/</text>
</g>
<!-- C&#45;&gt;A -->
<g id="edge3" class="edge">
<title>C&#45;&gt;A</title>
<path fill="none" stroke="black" d="M91.6,-88.28C83.34,-109.52 73.24,-135.49 64.54,-157.85"/>
<polygon fill="black" stroke="black" points="61.27,-156.6 60.91,-167.19 67.79,-159.14 61.27,-156.6"/>
<text text-anchor="middle" x="72.77" y="-131.09" font-family="Times,serif" font-size="12.00">*</text>
</g>
</g>
</svg>
